<svg width="424" height="129" viewBox="0 0 424 129" fill="none" xmlns="http://www.w3.org/2000/svg">
<path d="M80.5 92.5H84.5V96.5H80.5V92.5Z" fill="white"/>
<path d="M96.5 80.5H92.5V84.5H96.5V80.5Z" fill="white"/>
<path fill-rule="evenodd" clip-rule="evenodd" d="M76.5 0.5H52.5V4.5H40.5V8.5H32.5V12.5H24.5V16.5H20.5V20.5H16.5V24.5H12.5V32.5H8.5V40.5H4.5V52.5H0.5V76.5H4.5V88.5H8.5V96.5H12.5V104.5H16.5V108.5H20.5V112.5H24.5V116.5H32.5V120.5H40.5V124.5H52.5V128.5H76.5V124.5H88.5V120.5H96.5V116.5H104.5V112.5H108.5V108.5H112.5V104.5H116.5V96.5H120.5V88.5H124.5V76.5H128.5V52.5H124.5V40.5H120.5V32.5H116.5V24.5H112.5V20.5H108.5V16.5H104.5V12.5H96.5V8.5H88.5V4.5H76.5V0.5ZM76.5 4.5V8.5H88.5V12.5H96.5V16.5H104.5V20.5H108.5V24.5H112.5V32.5H116.5V40.5H120.5V52.5H124.5V68.5H116.5V64.5H108.5V60.5H100.5V56.5H92.5V52.5H88.5V44.5H84.5V40.5H80.5V36.5H76.5V32.5H72.5V28.5H64.5V36.5H60.5V44.5H56.5V52.5H52.5V60.5H48.5V68.5H44.5V64.5H40.5V60.5H36.5V56.5H32.5V60.5H28.5V64.5H24.5V68.5H20.5V72.5H12.5V76.5H4.5V52.5H8.5V40.5H12.5V32.5H16.5V24.5H20.5V20.5H24.5V16.5H32.5V12.5H40.5V8.5H52.5V4.5H76.5ZM12.5 76.5H20.5V72.5H24.5V68.5H28.5V64.5H32.5V68.5H36.5V72.5H44.5V76.5H52.5V80.5H56.5V76.5H52.5V72.5H48.5V68.5H52.5V60.5H56.5V52.5H60.5V44.5H64.5V36.5H68.5V40.5H72.5V48.5H76.5V56.5H80.5V64.5H84.5V68.5H80.5V72.5H76.5V76.5H72.5V84.5H68.5V88.5H64.5V92.5H60.5V96.5H64.5V92.5H68.5V88.5H72.5V84.5H76.5V80.5H80.5V76.5H84.5V80.5H88.5V76.5H84.5V72.5H92.5V76.5H100.5V80.5H108.5V84.5H112.5V80.5H108.5V76.5H104.5V72.5H100.5V68.5H108.5V72.5H112.5V68.5H116.5V72.5H124.5V76.5H120.5V88.5H116.5V96.5H112.5V104.5H108.5V108.5H104.5V112.5H96.5V116.5H88.5V120.5H76.5V124.5H52.5V120.5H40.5V116.5H32.5V112.5H24.5V108.5H20.5V104.5H16.5V96.5H12.5V88.5H8.5V80.5H12.5V76.5ZM92.5 72.5H96.5V68.5H92.5V72.5Z" fill="white"/>
<path d="M261.262 24.3H253.82V61.54H261.219V49.4199H261.301L269.379 61.54H278.699L268.941 48.3799L278.461 37.6201H269.422L261.262 47.0601V24.3Z" fill="white"/>
<path d="M176.059 26.6599H152.66V61.5H160.34V47.8999H174.859V40.8201H160.34V33.74H176.059V26.6599Z" fill="white"/>
<path fill-rule="evenodd" clip-rule="evenodd" d="M165.621 67.6599H152.621V102.5H160.301V88.8999H165.898C166.586 88.8999 167.258 88.8774 167.91 88.8306C169.004 88.7522 170.043 88.6052 171.02 88.3799C172.578 88.02 173.941 87.46 175.102 86.6201C175.809 86.1316 176.41 85.5237 176.93 84.8147C177.258 84.3625 177.555 83.8696 177.82 83.3401C178.5 81.98 178.82 80.3 178.82 78.22C178.82 76.1399 178.5 74.4199 177.781 73.0601L177.613 72.7444C177.441 72.4346 177.258 72.1401 177.059 71.8611L176.91 71.6575L176.699 71.3965L176.57 71.2424L176.32 70.9719L175.961 70.6201C175.645 70.3279 175.305 70.0613 174.941 69.8201C173.738 69.02 172.34 68.46 170.738 68.1399C170.43 68.0781 170.113 68.0222 169.797 67.9724L169.27 67.8958L168.906 67.8494C167.848 67.7231 166.75 67.6599 165.621 67.6599ZM165.461 82.4199H160.379V74.1399H164.301C165.02 74.1399 165.781 74.1799 166.578 74.26C167.379 74.3401 168.102 74.54 168.738 74.8201C168.855 74.8718 168.969 74.9277 169.078 74.988C169.191 75.0491 169.301 75.1143 169.402 75.1843C169.746 75.4197 170.047 75.7083 170.301 76.0601C170.496 76.334 170.645 76.6462 170.742 76.9968C170.848 77.3628 170.898 77.7705 170.898 78.22C170.898 78.5854 170.863 78.9258 170.797 79.2412C170.719 79.6162 170.594 79.9558 170.422 80.26C170.102 80.8201 169.699 81.22 169.18 81.54C168.887 81.7207 168.582 81.876 168.254 81.9983C168 82.0928 167.738 82.1677 167.461 82.22C167.199 82.269 166.93 82.3115 166.656 82.3445L166.199 82.3901C165.953 82.4094 165.707 82.4199 165.461 82.4199Z" fill="white"/>
<path fill-rule="evenodd" clip-rule="evenodd" d="M196.262 99.5H196.34L196.422 99.54V102.54H203.219V90.3799C203.219 88.3799 203.059 86.6201 202.738 85.1001C202.379 83.54 201.82 82.26 200.98 81.22C200.141 80.1399 199.02 79.3799 197.621 78.8201C196.219 78.3 194.422 78.02 192.262 78.02C190.301 78.02 188.379 78.3401 186.539 78.98C185.422 79.3687 184.379 79.875 183.43 80.4995C183.051 80.7485 182.684 81.0164 182.336 81.303C182.203 81.4116 182.07 81.5232 181.945 81.6372L181.699 81.8601L185.621 85.8999C186.422 85.02 187.301 84.3401 188.301 83.8201C189.301 83.3 190.34 83.0601 191.621 83.0601C192.898 83.0601 194.02 83.46 194.941 84.22C195.859 84.98 196.34 86.02 196.34 87.3401C195.863 87.3401 195.359 87.3491 194.828 87.3586L193.828 87.3748L193.02 87.3799C192.371 87.3799 191.723 87.415 191.074 87.4724C190.738 87.502 190.402 87.5376 190.066 87.5776L189.422 87.6599C188.887 87.7312 188.359 87.8181 187.844 87.9243C187.195 88.0571 186.562 88.22 185.941 88.4199C184.859 88.74 183.859 89.22 182.98 89.8601L182.727 90.054L182.484 90.2502C182.242 90.4587 182.016 90.6794 181.809 90.9146C181.461 91.3059 181.16 91.7378 180.898 92.22C180.379 93.1399 180.141 94.3401 180.141 95.7C180.141 96.8999 180.34 97.98 180.82 98.8999C181.301 99.8201 181.898 100.58 182.699 101.22C182.863 101.359 183.035 101.489 183.215 101.61C183.324 101.684 183.438 101.755 183.555 101.823C184.121 102.154 184.746 102.412 185.422 102.62C186.461 102.94 187.539 103.1 188.66 103.1C190.18 103.1 191.621 102.82 192.98 102.26C194.34 101.7 195.422 100.78 196.262 99.5ZM193.332 92.0383L193.785 92.0249L194.5 92.02V92.0601H196.34V93.6201C196.34 94.3799 196.18 95.02 195.859 95.5801C195.766 95.771 195.652 95.9482 195.523 96.113C195.445 96.2129 195.359 96.3083 195.27 96.3994C195.074 96.5984 194.855 96.7773 194.621 96.9399C194.348 97.1296 194.051 97.2971 193.73 97.4424C193.445 97.5728 193.141 97.6853 192.82 97.78C192.141 97.98 191.461 98.0601 190.738 98.0601C189.941 98.0601 189.141 97.8601 188.379 97.4199C188.188 97.3181 188.02 97.1982 187.879 97.0615L187.734 96.9072L187.637 96.7769C187.383 96.416 187.262 95.9719 187.262 95.46C187.262 94.6201 187.5 93.98 188.059 93.54C188.578 93.0601 189.262 92.74 190.02 92.5C190.32 92.4209 190.629 92.3479 190.941 92.2861C191.422 92.1919 191.914 92.124 192.422 92.1001C192.75 92.0688 193.051 92.0498 193.332 92.0383Z" fill="white"/>
<path d="M220.461 106.38C219.98 107.66 219.5 108.78 219.02 109.78C218.539 110.78 217.98 111.58 217.262 112.26C216.539 112.94 215.66 113.46 214.578 113.78C213.891 114.009 213.059 114.157 212.09 114.235L211.652 114.265L210.875 114.294L210.301 114.3C208.379 114.3 206.539 114.02 204.781 113.42L205.781 107.38C206.898 107.86 208.059 108.1 209.219 108.1C209.66 108.1 210.062 108.076 210.422 108.021C210.719 107.976 210.984 107.91 211.219 107.82C211.492 107.715 211.746 107.598 211.977 107.458L212.086 107.388L212.305 107.23L212.434 107.119L212.539 107.02C212.758 106.801 212.949 106.567 213.117 106.309L213.273 106.061L213.422 105.78C213.66 105.3 213.898 104.7 214.141 104.06L214.699 102.7L204.219 78.5801H212.18L218.34 94.3799H218.422L223.699 78.5801H231.301L220.461 106.38Z" fill="white"/>
<path d="M186.578 37.6201V41.46H186.66C186.891 41.0332 187.133 40.6365 187.383 40.2708C187.512 40.085 187.641 39.907 187.773 39.7373C187.902 39.5759 188.031 39.4219 188.164 39.2751C188.57 38.8262 189 38.4468 189.461 38.1399C189.969 37.8013 190.539 37.5334 191.172 37.3447C191.883 37.1323 192.672 37.02 193.539 37.02C193.98 37.02 194.379 37.02 194.82 37.0601C194.949 37.0601 195.07 37.0669 195.188 37.0793L195.387 37.1067L195.645 37.1577C195.77 37.1868 195.891 37.2214 196.02 37.26V44.02C195.711 43.9246 195.402 43.8433 195.094 43.7761L194.871 43.7305L194.543 43.6721L194.461 43.6599C193.941 43.5801 193.422 43.54 192.859 43.54C191.461 43.54 190.34 43.74 189.5 44.1399C189.148 44.3069 188.84 44.5017 188.566 44.7214C188.188 45.0283 187.875 45.3838 187.621 45.78C187.18 46.5 186.898 47.3401 186.738 48.3C186.621 49.3 186.539 50.3799 186.539 51.54V61.54H179.141V37.6201H186.578Z" fill="white"/>
<path fill-rule="evenodd" clip-rule="evenodd" d="M213.66 58.54H213.738L213.82 58.5801V61.5801H220.621V49.4199C220.621 47.4199 220.461 45.6599 220.141 44.1399C219.781 42.5801 219.219 41.3401 218.379 40.26C217.539 39.1799 216.422 38.4199 215.02 37.8601C213.621 37.3401 211.82 37.0601 209.66 37.0601C207.699 37.0601 205.781 37.3799 203.941 38.02C202.102 38.6599 200.461 39.6201 199.102 40.8999L203.02 44.9399L203.219 44.7268L203.652 44.3013C203.953 44.0237 204.266 43.77 204.59 43.5386C204.945 43.2869 205.312 43.0615 205.699 42.8601C206.039 42.6841 206.391 42.54 206.754 42.4265C207.469 42.2051 208.227 42.1001 209.02 42.1001C209.605 42.1001 210.16 42.1841 210.676 42.3479L211.023 42.4714C211.172 42.5317 211.316 42.5991 211.461 42.6736C211.773 42.8359 212.066 43.0317 212.34 43.26C213.262 44.02 213.738 45.0601 213.738 46.3799L212.535 46.3931L212.238 46.3984C211.656 46.4089 211.051 46.4199 210.422 46.4199C209.52 46.4199 208.621 46.4875 207.723 46.5889L206.82 46.7C205.621 46.8601 204.461 47.1001 203.34 47.46C202.262 47.78 201.262 48.26 200.379 48.8999C199.91 49.2422 199.496 49.6301 199.137 50.0576C198.82 50.4297 198.543 50.8318 198.301 51.26C197.781 52.1799 197.539 53.3799 197.539 54.74C197.539 54.9448 197.543 55.1462 197.555 55.344L197.586 55.7188C197.629 56.1279 197.703 56.5198 197.809 56.8926C197.91 57.261 198.047 57.6108 198.219 57.9399C198.699 58.8601 199.301 59.6201 200.102 60.26C200.859 60.8999 201.781 61.3401 202.82 61.6599C203.859 61.98 204.941 62.1399 206.059 62.1399C206.43 62.1399 206.797 62.123 207.156 62.0896C207.512 62.0569 207.863 62.0081 208.211 61.9429L208.723 61.8347C209.289 61.7007 209.84 61.5225 210.379 61.3C210.906 61.0823 211.398 60.8103 211.852 60.4839C212.562 59.9705 213.172 59.3225 213.66 58.54ZM209.859 51.1399C210.699 51.0601 211.379 51.0601 211.941 51.0601V51.1001H213.781V52.6599C213.781 53.0969 213.727 53.4944 213.621 53.8599L213.527 54.1384C213.465 54.3057 213.391 54.4658 213.301 54.6201C213.02 55.1799 212.578 55.6201 212.059 55.98C211.539 56.3401 210.941 56.6201 210.262 56.8201C209.621 57.02 208.898 57.1001 208.18 57.1001L207.973 57.0957C207.832 57.0896 207.691 57.0771 207.551 57.0583C207.355 57.0317 207.16 56.9924 206.965 56.9397C206.82 56.9011 206.68 56.8555 206.539 56.8022L206.293 56.7009L206.098 56.6104L205.82 56.46C205.059 56.0601 204.699 55.3799 204.699 54.5C204.699 53.6599 204.941 53.02 205.5 52.5801C206.02 52.1001 206.699 51.78 207.461 51.54L207.922 51.4287C208.188 51.3708 208.457 51.3213 208.734 51.2786C209.102 51.2214 209.477 51.1765 209.859 51.1399Z" fill="white"/>
<path d="M225.539 37.6201H232.621V40.8601H232.699C232.82 40.6396 232.961 40.4094 233.129 40.1792C233.293 39.9495 233.48 39.7197 233.699 39.5C234.141 39.0601 234.621 38.6201 235.219 38.26C235.82 37.8999 236.5 37.6201 237.219 37.3799C237.547 37.2769 237.879 37.196 238.227 37.1372C238.688 37.0591 239.176 37.02 239.699 37.02C241.578 37.02 243.059 37.3 244.219 37.8999C244.465 38.0193 244.699 38.1497 244.922 38.2908L245.109 38.4121L245.273 38.5293L245.496 38.6992C245.785 38.9307 246.047 39.1846 246.285 39.4609C246.512 39.7207 246.715 40.0005 246.898 40.3C247.25 40.8723 247.543 41.4812 247.773 42.1462C247.965 42.6895 248.113 43.2705 248.219 43.8999C248.461 45.26 248.578 46.78 248.578 48.3799V61.5801H241.18V49.8601C241.18 49.5132 241.18 49.1558 241.168 48.7881C241.16 48.4351 241.141 48.0723 241.102 47.7C241.086 47.4661 241.062 47.2363 241.023 47.0107C240.945 46.5422 240.82 46.092 240.66 45.6599C240.512 45.2615 240.301 44.925 240.047 44.6313L239.844 44.4177L239.715 44.2949L239.539 44.1399C239.02 43.74 238.301 43.54 237.34 43.54C236.379 43.54 235.621 43.7 235.02 44.0601C234.422 44.4199 233.98 44.8601 233.66 45.4199C233.34 45.98 233.141 46.6599 233.059 47.3799C233.016 47.7903 232.969 48.2134 232.938 48.6494C232.914 48.9788 232.898 49.3157 232.898 49.6599V61.5801H225.5V37.6599L225.539 37.6201Z" fill="white"/>
<path fill-rule="evenodd" clip-rule="evenodd" d="M300.746 59.1128C299.914 59.8154 298.98 60.3979 297.941 60.8601C296.141 61.7 294.262 62.1001 292.34 62.1001C290.422 62.1001 288.781 61.8201 287.141 61.22C285.5 60.6201 284.102 59.78 282.898 58.7C281.699 57.6201 280.738 56.3 280.059 54.74C279.379 53.1799 279.02 51.46 279.02 49.5801C279.02 48.8408 279.074 48.1204 279.184 47.4255L279.258 46.9983L279.309 46.7312L279.449 46.1416L279.625 45.5557C279.75 45.1643 279.895 44.7852 280.059 44.4199C280.738 42.8601 281.699 41.54 282.898 40.46C284.102 39.3799 285.5 38.5 287.141 37.9399C288.781 37.3401 290.5 37.0601 292.34 37.0601C294.059 37.0601 295.578 37.3401 296.98 37.9399C298.379 38.54 299.539 39.3799 300.539 40.46C301.5 41.5801 302.262 42.8999 302.781 44.4199C302.973 44.9922 303.129 45.5859 303.25 46.2009L303.34 46.6902C303.395 46.9956 303.438 47.3064 303.473 47.6223C303.543 48.2544 303.578 48.907 303.578 49.5801V51.8999H286.461C286.738 53.3 287.379 54.4199 288.379 55.26C289.379 56.1001 290.578 56.5 292.02 56.5C293.219 56.5 294.262 56.22 295.102 55.7C295.516 55.4238 295.902 55.1187 296.262 54.7795C296.633 54.4307 296.977 54.0459 297.301 53.6201L302.422 57.3799C301.914 58.0217 301.355 58.5994 300.746 59.1128ZM296.18 46.8601C296.18 45.6201 295.82 44.54 294.941 43.6599C294.102 42.78 292.98 42.3401 291.66 42.3401C290.859 42.3401 290.102 42.46 289.5 42.74C288.859 43.02 288.34 43.3401 287.898 43.74C287.461 44.1399 287.102 44.6201 286.859 45.1799C286.773 45.3784 286.699 45.5769 286.637 45.7754L286.555 46.105C286.527 46.2158 286.508 46.3267 286.492 46.4375C286.473 46.5784 286.461 46.7192 286.461 46.8601H296.18Z" fill="white"/>
<path d="M314.66 37.6201H307.578L307.539 37.6599V61.5801H314.941V49.6599C314.941 48.8601 315.02 48.1001 315.102 47.3799C315.18 46.6599 315.379 45.98 315.699 45.4199C316.02 44.8601 316.461 44.4199 317.059 44.0601C317.66 43.7 318.422 43.54 319.379 43.54C320.34 43.54 321.059 43.74 321.578 44.1399C322.059 44.54 322.461 45.02 322.699 45.6599C322.941 46.3 323.102 46.98 323.141 47.7C323.18 48.0715 323.199 48.4331 323.211 48.7854L323.219 49.3706V61.5801H330.621V48.3799C330.621 46.78 330.5 45.26 330.262 43.8999C330.02 42.5 329.578 41.3 328.941 40.3C328.301 39.26 327.422 38.46 326.262 37.8999C325.766 37.6428 325.211 37.4443 324.59 37.3015C324.164 37.2046 323.711 37.1333 323.227 37.0867C322.762 37.042 322.266 37.02 321.738 37.02C321.438 37.02 321.152 37.0327 320.875 37.0583L320.578 37.0911L320.227 37.1445C319.895 37.2026 319.574 37.281 319.262 37.3799C318.539 37.6201 317.859 37.8999 317.262 38.26C316.66 38.6201 316.18 39.0601 315.738 39.5C315.641 39.5994 315.547 39.7007 315.461 39.803C315.309 39.9783 315.176 40.157 315.059 40.3342L314.871 40.6284L314.738 40.8601H314.66V37.6201Z" fill="white"/>
<path d="M350.297 44.6653L350.016 44.4336C349.895 44.3423 349.766 44.2546 349.633 44.1709L349.379 44.02C349.281 43.9648 349.18 43.9143 349.078 43.8687L348.801 43.7566C348.66 43.7051 348.516 43.6616 348.367 43.626C348.012 43.5403 347.641 43.5 347.262 43.5C345.379 43.5 343.941 44.0601 342.898 45.1799C341.859 46.3 341.34 47.74 341.34 49.5801C341.34 51.4199 341.859 52.8601 342.898 53.98C343.941 55.1001 345.379 55.6599 347.262 55.6599C347.414 55.6599 347.559 55.6533 347.699 55.6404L347.902 55.6177C348.062 55.5952 348.223 55.564 348.375 55.5242L348.469 55.4988C348.793 55.4041 349.098 55.27 349.379 55.1001C349.98 54.74 350.461 54.3 350.898 53.8201L355.781 58.9399C354.621 60.1399 353.262 60.9399 351.699 61.4199C350.141 61.8999 348.66 62.1399 347.262 62.1399C346.129 62.1399 345.039 62.0334 343.984 61.811C343.328 61.6729 342.688 61.49 342.059 61.26C341.086 60.9036 340.195 60.4624 339.383 59.9368C338.828 59.5774 338.309 59.1785 337.82 58.74C336.621 57.6599 335.66 56.3401 334.98 54.78C334.301 53.22 333.941 51.5 333.941 49.6201C333.941 47.74 334.301 45.98 334.98 44.46C335.359 43.5894 335.824 42.7935 336.371 42.0725C336.805 41.5015 337.289 40.9773 337.82 40.5C339.02 39.4199 340.422 38.54 342.059 37.98C342.297 37.8936 342.535 37.8135 342.773 37.7402L343.234 37.6082C343.727 37.4761 344.227 37.3708 344.734 37.291C345.555 37.1624 346.395 37.1001 347.262 37.1001C348.66 37.1001 350.141 37.3401 351.699 37.8201C353.262 38.3 354.621 39.1399 355.781 40.3L350.898 45.3401C350.828 45.2405 350.754 45.1438 350.672 45.05C350.559 44.9158 350.434 44.7876 350.297 44.6653Z" fill="white"/>
<path fill-rule="evenodd" clip-rule="evenodd" d="M357.738 44.4199C357.059 45.9399 356.699 47.6599 356.699 49.5801C356.699 51.46 357.059 53.1799 357.738 54.74C358.422 56.3 359.379 57.6201 360.578 58.7C360.762 58.8657 360.953 59.0259 361.145 59.1802C361.438 59.4138 361.742 59.6348 362.059 59.8428C362.426 60.0852 362.812 60.3098 363.215 60.5168C363.723 60.7795 364.258 61.0139 364.82 61.22C365.738 61.5557 366.68 61.7913 367.652 61.9336C368.078 61.9956 368.508 62.04 368.945 62.0674L369.297 62.0854C369.535 62.0952 369.777 62.1001 370.02 62.1001C370.457 62.1001 370.887 62.0842 371.312 62.052C371.848 62.0117 372.371 61.9453 372.883 61.8521L373.34 61.761C373.539 61.719 373.734 61.6729 373.926 61.6228C374.363 61.5095 374.793 61.3755 375.219 61.22C376.859 60.6599 378.262 59.78 379.461 58.7C380.043 58.1765 380.566 57.5967 381.031 56.9604C381.523 56.2842 381.949 55.5439 382.301 54.74C382.98 53.22 383.34 51.46 383.34 49.5801C383.34 47.7 382.98 45.98 382.301 44.4199C381.859 43.4294 381.297 42.5242 380.629 41.7036C380.438 41.4705 380.238 41.2441 380.031 41.0247C379.848 40.8311 379.656 40.6428 379.461 40.46C378.262 39.3799 376.859 38.54 375.219 37.9399C374.965 37.8467 374.707 37.7612 374.449 37.6833C373.961 37.5371 373.469 37.4177 372.969 37.324L372.492 37.2429L371.855 37.1587C371.258 37.0925 370.645 37.0601 370.02 37.0601C368.18 37.0601 366.461 37.3401 364.82 37.9399C363.18 38.5 361.781 39.3799 360.578 40.46C359.379 41.54 358.422 42.8601 357.738 44.4199ZM365.66 53.98C364.621 52.8601 364.102 51.3799 364.102 49.5801C364.102 48.7703 364.203 48.0378 364.402 47.3762C364.66 46.5344 365.078 45.8071 365.66 45.1799C366.699 44.0601 368.141 43.5 370.02 43.5C371.898 43.5 373.34 44.0601 374.379 45.1799C375.422 46.3 375.941 47.74 375.941 49.5801C375.941 51.4199 375.422 52.8601 374.379 53.98C373.34 55.1001 371.898 55.6599 370.02 55.6599C368.141 55.6599 366.699 55.1001 365.66 53.98Z" fill="white"/>
<path d="M386.5 30.0601C386.5 29.4404 386.605 28.874 386.824 28.3555C387.031 27.8699 387.332 27.4263 387.738 27.02C388.578 26.1799 389.578 25.78 390.781 25.78C391.352 25.78 391.875 25.8701 392.359 26.0547C392.461 26.093 392.559 26.1357 392.656 26.1824L392.938 26.3311C393.25 26.5139 393.543 26.7429 393.82 27.02C394.66 27.8601 395.059 28.8601 395.059 30.0601C395.059 30.5181 395 30.947 394.883 31.3489C394.691 32 394.34 32.5806 393.82 33.1001C392.98 33.9399 391.98 34.3401 390.781 34.3401C389.578 34.3401 388.578 33.9399 387.738 33.1001C386.898 32.26 386.5 31.26 386.5 30.0601Z" fill="white"/>
<path d="M387.059 37.6201H394.461V61.54H387.059V37.6201Z" fill="white"/>
<path d="M406.98 37.6201H399.898L399.859 37.6599V61.5801H407.262V49.6599L407.266 49.2915C407.285 48.6257 407.352 47.9888 407.422 47.3799C407.449 47.1187 407.492 46.8628 407.555 46.616L407.672 46.2051C407.766 45.9253 407.883 45.6614 408.02 45.4199C408.34 44.8601 408.781 44.4199 409.379 44.0601C409.98 43.7 410.738 43.54 411.699 43.54C412.66 43.54 413.379 43.74 413.898 44.1399C414.379 44.54 414.781 45.02 415.02 45.6599C415.262 46.3 415.422 46.98 415.461 47.7C415.539 48.46 415.539 49.1799 415.539 49.8601V61.5801H422.941V48.3799C422.941 46.78 422.82 45.26 422.578 43.8999C422.34 42.5 421.898 41.3401 421.262 40.3C421.047 39.9512 420.805 39.6294 420.535 39.3345C420.297 39.0771 420.039 38.8401 419.758 38.6238C419.402 38.3494 419.008 38.1082 418.578 37.8999C417.422 37.3 415.941 37.02 414.059 37.02C413.141 37.02 412.34 37.1399 411.578 37.3799C411.27 37.4829 410.969 37.5933 410.676 37.7141C410.289 37.875 409.922 38.0544 409.578 38.26C408.98 38.6201 408.5 39.0601 408.059 39.5C407.621 39.9399 407.301 40.4199 407.059 40.8601H406.98V37.6201Z" fill="white"/>
</svg>
